<svg width="215" height="227" viewBox="0 0 215 227" fill="none" xmlns="http://www.w3.org/2000/svg">
<path d="M44.902 146.241C43.0546 143.7 40.5199 142.117 37.635 141.031C33.9533 139.647 30.1008 139.088 26.2002 139.053C18.2459 138.974 10.2915 139.009 2.33709 139C2.23202 139 2.12695 139.022 2 139.04V172.274H2.58662C9.53412 172.274 16.4816 172.265 23.4247 172.274C26.0251 172.274 28.6212 172.177 31.1953 171.799C34.2028 171.355 37.114 170.59 39.8063 169.13C43.5143 167.117 46.0052 164.132 46.9771 159.974C47.5637 157.472 47.5331 154.927 47.2529 152.395C47.0077 150.149 46.2329 148.078 44.8977 146.236L44.902 146.241ZM34.9995 160.431C33.892 161.873 32.3598 162.695 30.6743 163.253C28.5949 163.943 26.4366 164.211 24.2565 164.229C20.4304 164.26 16.5998 164.246 12.7737 164.255C12.6686 164.255 12.5592 164.238 12.4016 164.224V146.909C12.5504 146.9 12.6861 146.878 12.8218 146.878C16.6042 146.878 20.3822 146.852 24.1646 146.896C26.8219 146.926 29.4442 147.238 31.9132 148.324C34.1021 149.287 35.7262 150.808 36.256 153.221C36.8163 155.775 36.6718 158.255 34.9995 160.426V160.431Z" fill="white"/>
<path d="M123.281 140.732C120.659 139.519 117.857 139.071 115.012 139.049C106.287 138.987 97.5619 139.009 88.837 139C88.7144 139 88.5962 139.022 88.4518 139.036V172.243H98.8358V161.187C99.742 161.187 100.574 161.187 101.41 161.187C106.243 161.156 111.08 161.174 115.913 161.077C118.234 161.029 120.51 160.567 122.668 159.657C125.313 158.545 127.3 156.773 128.25 153.982C128.806 152.355 128.885 150.681 128.793 148.984C128.583 145.142 126.788 142.355 123.281 140.732ZM117.953 150.412C117.8 152.333 116.745 153.292 114.561 153.604C114.097 153.67 113.62 153.705 113.151 153.705C108.506 153.714 103.866 153.709 99.2211 153.705C99.1116 153.705 99.0022 153.692 98.8621 153.687V146.557C99.0503 146.557 99.2211 146.557 99.3918 146.557C103.879 146.557 108.362 146.553 112.849 146.562C113.856 146.562 114.858 146.614 115.822 146.975C117.441 147.573 118.08 148.821 117.953 150.412Z" fill="white"/>
<path d="M84.9935 157.789C84.5119 154.571 82.9447 151.995 80.1736 150.219C77.7964 148.698 75.1348 148.034 72.368 147.749C69.146 147.415 65.9152 147.454 62.6932 147.674C60.246 147.841 57.8601 148.329 55.6143 149.362C52.6287 150.738 50.5274 152.91 49.608 156.132C49.1002 157.921 49.0827 159.754 49.1965 161.583C49.4023 164.946 50.79 167.715 53.5305 169.733C55.8901 171.474 58.6087 172.309 61.4674 172.634C65.9896 173.153 70.5206 173.144 75.0297 172.454C77.1704 172.124 79.2411 171.522 81.1104 170.379C83.0891 169.17 84.4944 167.522 84.9497 165.183C85.0372 164.73 85.0547 164.264 85.1073 163.768H84.4944C81.6883 163.768 78.8865 163.776 76.0847 163.759C75.5857 163.759 75.2004 163.772 74.9947 164.352C74.8852 164.656 74.6138 164.963 74.3292 165.13C73.5894 165.566 72.8408 166.04 72.0309 166.286C69.7851 166.963 67.4693 166.985 65.1491 166.73C63.665 166.568 62.2335 166.212 60.9858 165.341C59.8958 164.576 59.2216 163.539 58.9502 162.167H85.3043C85.2036 160.651 85.2036 159.209 84.9935 157.798V157.789ZM59.1384 157.182C59.5324 155.802 60.3686 154.822 61.6119 154.171C62.8508 153.525 64.1947 153.283 65.565 153.2C67.7889 153.059 70.004 153.094 72.1228 153.912C73.4537 154.426 74.4825 155.279 74.999 156.664C75.0384 156.765 75.0691 156.87 75.0997 156.98C75.1172 157.037 75.1216 157.099 75.1347 157.187H59.1384V157.182Z" fill="white"/>
<path d="M177.653 165.737C176.541 165.732 176.23 165.42 176.23 164.295C176.23 161.169 176.23 158.048 176.226 154.923C176.226 152.246 175 150.36 172.579 149.248C170.531 148.307 168.35 147.876 166.131 147.766C163.176 147.617 160.217 147.582 157.257 147.582C155.243 147.582 153.234 147.819 151.273 148.32C149.408 148.795 147.635 149.467 146.273 150.914C144.999 152.272 144.592 153.921 144.649 155.732C144.741 155.758 144.785 155.78 144.833 155.78C147.749 155.78 150.66 155.789 153.576 155.771C153.694 155.771 153.838 155.591 153.926 155.464C154.171 155.09 154.333 154.637 154.639 154.334C155.27 153.718 156.119 153.507 156.955 153.367C159.205 152.98 161.473 153.046 163.732 153.283C164.441 153.358 165.155 153.569 165.811 153.841C166.516 154.132 166.731 154.681 166.595 155.38C166.494 155.899 166.1 156.202 165.356 156.272C162.362 156.562 159.372 156.839 156.377 157.125C154.153 157.341 151.921 157.481 149.749 158.07C148.292 158.462 146.899 158.998 145.779 160.053C144.522 161.227 144.098 162.739 144.058 164.409C144.015 166.273 144.448 167.97 145.687 169.407C147.184 171.144 149.171 171.962 151.347 172.37C154.272 172.915 157.213 172.867 160.133 172.353C162.642 171.913 164.953 171.012 166.774 169.126C166.801 169.1 166.853 169.091 166.893 169.078C166.919 169.113 166.945 169.135 166.954 169.161C167.379 171.333 169.003 172.326 171.043 172.291C173.451 172.247 175.863 172.282 178.27 172.282H178.778V165.746C178.384 165.746 178.025 165.746 177.666 165.746L177.653 165.737ZM164.651 165.209C163.01 166.533 161.079 167.086 159.017 167.245C157.726 167.346 156.439 167.337 155.204 166.853C154.096 166.423 153.488 165.535 153.527 164.431C153.554 163.737 153.899 163.222 154.517 163.011C155.449 162.699 156.408 162.427 157.375 162.268C160.365 161.772 163.369 161.332 166.367 160.871C166.429 160.862 166.49 160.857 166.595 160.849C166.779 162.721 166.013 164.11 164.642 165.209H164.651Z" fill="white"/>
<path d="M214.654 157.235C214.645 156.255 214.505 155.239 214.216 154.307C213.28 151.239 211.077 149.406 208.118 148.421C205.763 147.639 203.329 147.546 200.877 147.753C197.174 148.065 193.877 149.362 191.137 151.938C191.04 152.03 190.931 152.105 190.747 152.254V148.245H180.897V172.247H190.83C190.83 172.032 190.83 171.847 190.83 171.658C190.83 168.155 190.822 164.651 190.83 161.147C190.839 158.018 192.288 155.881 195.068 154.892C196.469 154.395 197.918 154.316 199.398 154.452C202.55 154.747 204.528 156.769 204.577 159.939C204.633 163.833 204.598 167.733 204.603 171.632C204.603 171.834 204.603 172.032 204.603 172.252H214.641C214.65 172.093 214.667 171.957 214.667 171.816C214.667 166.955 214.694 162.097 214.65 157.235H214.654Z" fill="white"/>
<path d="M131.581 172.26H141.488V139.027H131.581V172.26Z" fill="white"/>
<path d="M0.0477676 213L13.4439 186.116H22.4509L35.8013 213H28.7603L26.0628 207.193H9.69482L6.72298 213H0.0477676ZM11.3408 202.713H24.3711L18.1074 190.231H17.6502L11.3408 202.713ZM41.8011 189.637C40.6733 189.637 39.8503 189.408 39.3322 188.951C38.814 188.494 38.5549 187.732 38.5549 186.665C38.5549 185.568 38.7988 184.806 39.2864 184.379C39.8046 183.922 40.6428 183.693 41.8011 183.693C42.9593 183.693 43.7975 183.922 44.3157 184.379C44.8339 184.806 45.093 185.568 45.093 186.665C45.093 187.701 44.8339 188.463 44.3157 188.951C43.7975 189.408 42.9593 189.637 41.8011 189.637ZM39.0121 213V192.517H44.59V213H39.0121ZM50.5655 213V192.517H54.3146L56.052 193.432C56.8445 193.005 57.6979 192.67 58.6123 192.426C59.5268 192.182 60.685 192.06 62.0871 192.06C64.3122 192.06 66.1105 192.304 67.4821 192.791C68.8842 193.279 69.8139 193.645 70.2711 193.889L68.6709 197.866C68.3051 197.684 67.6955 197.455 66.8421 197.181C66.0191 196.876 65.0437 196.602 63.9159 196.358C62.7882 196.114 61.5537 195.992 60.2126 195.992H59.7096C58.2466 195.992 57.2864 196.281 56.8292 196.861C56.4025 197.44 56.1739 198.4 56.1434 199.741V213H50.5655ZM79.0484 213C77.5244 213 76.3509 212.802 75.5279 212.406C74.7049 212.009 74.1106 211.506 73.7448 210.897C73.4095 210.287 73.1961 209.647 73.1047 208.977C73.0437 208.306 73.0133 207.696 73.0133 207.148V198.369C73.0133 197.912 73.0437 197.364 73.1047 196.723C73.1961 196.053 73.4095 195.398 73.7448 194.757C74.1106 194.117 74.7049 193.584 75.5279 193.157C76.3814 192.731 77.5548 192.517 79.0484 192.517H81.3801C84.1843 192.517 86.4399 192.578 88.1468 192.7C89.8842 192.791 91.2101 192.898 92.1245 193.02V184.013H97.7024V213H93.9533L92.1702 212.086C90.89 212.299 89.3508 212.512 87.5524 212.726C85.7541 212.909 83.6814 213 81.3344 213H79.0484ZM80.7858 209.068H90.7072C91.3472 209.068 91.7435 208.992 91.8959 208.839C92.0483 208.687 92.1245 208.306 92.1245 207.696V196.769C91.0882 196.708 89.7775 196.647 88.1925 196.586C86.6075 196.495 84.9159 196.449 83.1175 196.449H80.7858C79.3227 196.449 78.5912 197.059 78.5912 198.278V207.239C78.5912 208.458 79.3227 209.068 80.7858 209.068ZM103.653 213V192.517H107.402L109.14 193.432C109.932 193.005 110.786 192.67 111.7 192.426C112.614 192.182 113.773 192.06 115.175 192.06C117.4 192.06 119.198 192.304 120.57 192.791C121.972 193.279 122.902 193.645 123.359 193.889L121.759 197.866C121.393 197.684 120.783 197.455 119.93 197.181C119.107 196.876 118.131 196.602 117.004 196.358C115.876 196.114 114.641 195.992 113.3 195.992H112.797C111.334 195.992 110.374 196.281 109.917 196.861C109.49 197.44 109.262 198.4 109.231 199.741V213H103.653ZM132.136 213C130.094 213 128.57 212.589 127.564 211.766C126.589 210.943 126.101 209.601 126.101 207.742V198.369C126.101 197.912 126.131 197.364 126.192 196.723C126.284 196.053 126.497 195.398 126.833 194.757C127.198 194.117 127.793 193.584 128.616 193.157C129.469 192.731 130.643 192.517 132.136 192.517H144.755C146.279 192.517 147.453 192.731 148.276 193.157C149.098 193.584 149.678 194.117 150.013 194.757C150.379 195.398 150.592 196.053 150.653 196.723C150.744 197.364 150.79 197.912 150.79 198.369V207.148C150.79 207.696 150.744 208.306 150.653 208.977C150.592 209.647 150.379 210.287 150.013 210.897C149.647 211.506 149.053 212.009 148.23 212.406C147.407 212.802 146.249 213 144.755 213H132.136ZM133.874 209.068H143.018C144.511 209.068 145.258 208.458 145.258 207.239V198.278C145.258 197.059 144.511 196.449 143.018 196.449H133.874C132.41 196.449 131.679 197.059 131.679 198.278V207.239C131.679 208.458 132.41 209.068 133.874 209.068ZM155.803 221.504V192.517H159.552L160.695 193.112C162.067 192.959 163.698 192.822 165.588 192.7C167.508 192.578 169.687 192.517 172.126 192.517H174.457C175.981 192.517 177.155 192.715 177.978 193.112C178.801 193.508 179.38 194.011 179.715 194.62C180.081 195.23 180.294 195.87 180.355 196.541C180.447 197.211 180.493 197.821 180.493 198.369V207.148C180.493 207.605 180.447 208.169 180.355 208.839C180.294 209.48 180.081 210.12 179.715 210.76C179.38 211.4 178.801 211.933 177.978 212.36C177.155 212.787 175.981 213 174.457 213H172.126C169.809 213 167.752 212.939 165.953 212.817C164.155 212.695 162.631 212.573 161.381 212.451V221.504H155.803ZM162.799 209.068H172.72C173.299 209.068 173.802 208.916 174.229 208.611C174.686 208.306 174.915 207.849 174.915 207.239V198.278C174.945 197.607 174.777 197.135 174.412 196.861C174.076 196.586 173.512 196.449 172.72 196.449H170.434C168.483 196.449 166.746 196.495 165.222 196.586C163.728 196.647 162.448 196.723 161.381 196.815V207.651C161.381 208.321 161.442 208.733 161.564 208.885C161.717 209.007 162.128 209.068 162.799 209.068ZM190.706 213C188.664 213 187.216 212.893 186.363 212.68C185.509 212.467 185.082 212.253 185.082 212.04L186.454 208.611C187.338 208.702 188.953 208.809 191.3 208.931C193.678 209.022 196.604 209.068 200.079 209.068H202.365C203.127 209.068 203.599 208.87 203.782 208.474C203.996 208.047 204.102 207.483 204.102 206.782C204.102 206.081 203.98 205.517 203.736 205.09C203.523 204.664 203.066 204.45 202.365 204.45H191.118C188.984 204.45 187.445 204.054 186.5 203.262C185.555 202.439 185.082 201.219 185.082 199.604V197.775C185.082 197.348 185.128 196.845 185.22 196.266C185.311 195.687 185.54 195.108 185.905 194.529C186.271 193.95 186.866 193.477 187.688 193.112C188.511 192.715 189.654 192.517 191.118 192.517H203.736C205.565 192.517 206.861 192.624 207.623 192.837C208.385 193.051 208.766 193.264 208.766 193.477L208.309 196.906C207.425 196.815 205.794 196.723 203.416 196.632C201.039 196.51 198.128 196.449 194.684 196.449H192.398C191.636 196.449 191.148 196.662 190.935 197.089C190.752 197.485 190.66 197.958 190.66 198.507C190.66 199.086 190.752 199.573 190.935 199.97C191.148 200.335 191.636 200.518 192.398 200.518H203.645C205.718 200.518 207.242 200.945 208.217 201.798C209.192 202.652 209.68 203.734 209.68 205.045V207.742C209.68 208.291 209.634 208.87 209.543 209.48C209.482 210.089 209.269 210.668 208.903 211.217C208.537 211.735 207.943 212.162 207.12 212.497C206.297 212.832 205.139 213 203.645 213H190.706Z" fill="#36DEDE"/>
<path fill-rule="evenodd" clip-rule="evenodd" d="M111.212 9.55797V25.4195C107.576 22.9274 103.179 21.4321 98.4583 21.4321C86.0564 21.4615 76 31.5179 76 43.9198C76 53.8002 82.3915 62.1268 91.2458 65.1173V54.328C87.9035 52.0411 85.7046 48.259 85.7046 43.8904C85.7046 36.8539 91.4218 31.1367 98.4583 31.1367C105.495 31.1367 111.212 36.8539 111.212 43.8904C111.212 44.3889 111.183 44.8873 111.124 45.3857V59.1949C111.124 59.1949 111.124 59.3415 111.124 59.3708V59.6054C111.124 60.485 111.271 61.3645 111.505 62.1561C117.193 58.0808 120.917 51.4254 120.917 43.8904V0L111.212 9.55797Z" fill="white"/>
<path fill-rule="evenodd" clip-rule="evenodd" d="M125.666 40.1089V50.8689C129.038 53.1558 131.296 56.938 131.296 61.3065C131.296 68.343 125.578 74.0602 118.542 74.0602C111.505 74.0602 105.935 68.4896 105.788 61.5703V61.3065C105.788 61.3065 105.788 61.1306 105.788 61.0426V42.8355C99.9243 46.8816 96.0835 53.6542 96.0835 61.3065V104.933L105.788 95.3751V79.8067C109.424 82.2988 113.821 83.7941 118.542 83.7941C130.944 83.7941 141 73.7377 141 61.3358C141 51.4553 134.579 43.1287 125.696 40.1382L125.666 40.1089Z" fill="white"/>
</svg>
