<svg width="217" height="219" viewBox="0 0 217 219" fill="none" xmlns="http://www.w3.org/2000/svg">
<path d="M46.902 138.241C45.0546 135.7 42.5199 134.117 39.635 133.031C35.9533 131.647 32.1008 131.088 28.2002 131.053C20.2459 130.974 12.2915 131.009 4.33709 131C4.23202 131 4.12695 131.022 4 131.04V164.274H4.58662C11.5341 164.274 18.4816 164.265 25.4247 164.274C28.0251 164.274 30.6212 164.177 33.1953 163.799C36.2028 163.355 39.114 162.59 41.8063 161.13C45.5143 159.117 48.0052 156.132 48.9771 151.974C49.5637 149.472 49.5331 146.927 49.2529 144.395C49.0077 142.149 48.2329 140.078 46.8977 138.236L46.902 138.241ZM36.9995 152.431C35.892 153.873 34.3598 154.695 32.6743 155.253C30.5949 155.943 28.4366 156.211 26.2565 156.229C22.4304 156.26 18.5998 156.246 14.7737 156.255C14.6686 156.255 14.5592 156.238 14.4016 156.224V138.909C14.5504 138.9 14.6861 138.878 14.8218 138.878C18.6042 138.878 22.3822 138.852 26.1646 138.896C28.8219 138.926 31.4442 139.238 33.9132 140.324C36.1021 141.287 37.7262 142.808 38.256 145.221C38.8163 147.775 38.6718 150.255 36.9995 152.426V152.431Z" fill="white"/>
<path d="M125.281 132.732C122.659 131.519 119.857 131.071 117.012 131.049C108.287 130.987 99.5619 131.009 90.837 131C90.7144 131 90.5962 131.022 90.4518 131.036V164.243H100.836V153.187C101.742 153.187 102.574 153.187 103.41 153.187C108.243 153.156 113.08 153.174 117.913 153.077C120.234 153.029 122.51 152.567 124.668 151.657C127.313 150.545 129.3 148.773 130.25 145.982C130.806 144.355 130.885 142.681 130.793 140.984C130.583 137.142 128.788 134.355 125.281 132.732ZM119.953 142.412C119.8 144.333 118.745 145.292 116.561 145.604C116.097 145.67 115.62 145.705 115.151 145.705C110.506 145.714 105.866 145.709 101.221 145.705C101.112 145.705 101.002 145.692 100.862 145.687V138.557C101.05 138.557 101.221 138.557 101.392 138.557C105.879 138.557 110.362 138.553 114.849 138.562C115.856 138.562 116.858 138.614 117.822 138.975C119.441 139.573 120.08 140.821 119.953 142.412Z" fill="white"/>
<path d="M86.9935 149.789C86.5119 146.571 84.9447 143.995 82.1736 142.219C79.7964 140.698 77.1348 140.034 74.368 139.749C71.146 139.415 67.9152 139.454 64.6932 139.674C62.246 139.841 59.8601 140.329 57.6143 141.362C54.6287 142.738 52.5274 144.91 51.608 148.132C51.1002 149.921 51.0827 151.754 51.1965 153.583C51.4023 156.946 52.79 159.715 55.5305 161.733C57.8901 163.474 60.6087 164.309 63.4674 164.634C67.9896 165.153 72.5206 165.144 77.0297 164.454C79.1704 164.124 81.2411 163.522 83.1104 162.379C85.0891 161.17 86.4944 159.522 86.9497 157.183C87.0372 156.73 87.0547 156.264 87.1073 155.768H86.4944C83.6883 155.768 80.8865 155.776 78.0847 155.759C77.5857 155.759 77.2004 155.772 76.9947 156.352C76.8852 156.656 76.6138 156.963 76.3292 157.13C75.5894 157.566 74.8408 158.04 74.0309 158.286C71.7851 158.963 69.4693 158.985 67.1491 158.73C65.665 158.568 64.2335 158.212 62.9858 157.341C61.8958 156.576 61.2216 155.539 60.9502 154.167H87.3043C87.2036 152.651 87.2036 151.209 86.9935 149.798V149.789ZM61.1384 149.182C61.5324 147.802 62.3686 146.822 63.6119 146.171C64.8508 145.525 66.1947 145.283 67.565 145.2C69.7889 145.059 72.004 145.094 74.1228 145.912C75.4537 146.426 76.4825 147.279 76.999 148.664C77.0384 148.765 77.0691 148.87 77.0997 148.98C77.1172 149.037 77.1216 149.099 77.1347 149.187H61.1384V149.182Z" fill="white"/>
<path d="M179.653 157.737C178.541 157.732 178.23 157.42 178.23 156.295C178.23 153.169 178.23 150.048 178.226 146.923C178.226 144.246 177 142.36 174.579 141.248C172.531 140.307 170.35 139.876 168.131 139.766C165.176 139.617 162.217 139.582 159.257 139.582C157.243 139.582 155.234 139.819 153.273 140.32C151.408 140.795 149.635 141.467 148.273 142.914C146.999 144.272 146.592 145.921 146.649 147.732C146.741 147.758 146.785 147.78 146.833 147.78C149.749 147.78 152.66 147.789 155.576 147.771C155.694 147.771 155.838 147.591 155.926 147.464C156.171 147.09 156.333 146.637 156.639 146.334C157.27 145.718 158.119 145.507 158.955 145.367C161.205 144.98 163.473 145.046 165.732 145.283C166.441 145.358 167.155 145.569 167.811 145.841C168.516 146.132 168.731 146.681 168.595 147.38C168.494 147.899 168.1 148.202 167.356 148.272C164.362 148.562 161.372 148.839 158.377 149.125C156.153 149.341 153.921 149.481 151.749 150.07C150.292 150.462 148.899 150.998 147.779 152.053C146.522 153.227 146.098 154.739 146.058 156.409C146.015 158.273 146.448 159.97 147.687 161.407C149.184 163.144 151.171 163.962 153.347 164.37C156.272 164.915 159.213 164.867 162.133 164.353C164.642 163.913 166.953 163.012 168.774 161.126C168.801 161.1 168.853 161.091 168.893 161.078C168.919 161.113 168.945 161.135 168.954 161.161C169.379 163.333 171.003 164.326 173.043 164.291C175.451 164.247 177.863 164.282 180.27 164.282H180.778V157.746C180.384 157.746 180.025 157.746 179.666 157.746L179.653 157.737ZM166.651 157.209C165.01 158.533 163.079 159.086 161.017 159.245C159.726 159.346 158.439 159.337 157.204 158.853C156.096 158.423 155.488 157.535 155.527 156.431C155.554 155.737 155.899 155.222 156.517 155.011C157.449 154.699 158.408 154.427 159.375 154.268C162.365 153.772 165.369 153.332 168.367 152.871C168.429 152.862 168.49 152.857 168.595 152.849C168.779 154.721 168.013 156.11 166.642 157.209H166.651Z" fill="white"/>
<path d="M216.654 149.235C216.645 148.255 216.505 147.239 216.216 146.307C215.28 143.239 213.077 141.406 210.118 140.421C207.763 139.639 205.329 139.546 202.877 139.753C199.174 140.065 195.877 141.362 193.137 143.938C193.04 144.03 192.931 144.105 192.747 144.254V140.245H182.897V164.247H192.83C192.83 164.032 192.83 163.847 192.83 163.658C192.83 160.155 192.822 156.651 192.83 153.147C192.839 150.018 194.288 147.881 197.068 146.892C198.469 146.395 199.918 146.316 201.398 146.452C204.55 146.747 206.528 148.769 206.577 151.939C206.633 155.833 206.598 159.733 206.603 163.632C206.603 163.834 206.603 164.032 206.603 164.252H216.641C216.65 164.093 216.667 163.957 216.667 163.816C216.667 158.955 216.694 154.097 216.65 149.235H216.654Z" fill="white"/>
<path d="M133.581 164.26H143.488V131.027H133.581V164.26Z" fill="white"/>
<path d="M33.0099 205.457C31.7906 205.457 30.5867 205.274 29.3979 204.909C28.2397 204.512 26.9138 203.567 25.4202 202.074L22.1283 198.782C20.7872 197.41 19.3089 196.405 17.6934 195.764C16.1085 195.124 14.112 194.804 11.704 194.804H10.2867V205H4.25158V181.774L3.79437 178.071H24.0486C25.9994 178.071 27.5234 178.33 28.6207 178.848C29.7485 179.366 30.5714 180.052 31.0896 180.905C31.6382 181.728 31.9888 182.612 32.1412 183.557C32.2936 184.502 32.3698 185.401 32.3698 186.255V187.123C32.3698 187.794 32.2783 188.541 32.0955 189.364C31.9126 190.187 31.562 190.994 31.0439 191.787C30.5257 192.579 29.7789 193.25 28.8036 193.798C27.8587 194.347 26.609 194.667 25.0545 194.759C25.4507 194.972 25.9536 195.307 26.5633 195.764C27.1729 196.191 27.7977 196.664 28.4378 197.182C29.1084 197.7 29.718 198.172 30.2666 198.599C30.8153 199.026 31.242 199.331 31.5468 199.514C32.6441 200.154 33.6195 200.596 34.4729 200.839C35.3264 201.083 36.0274 201.22 36.5761 201.251C37.1247 201.281 37.4448 201.297 37.5362 201.297L36.6218 205C36.3475 205.091 35.8903 205.183 35.2502 205.274C34.6101 205.396 33.8633 205.457 33.0099 205.457ZM17.1448 190.644C18.3031 190.644 19.3394 190.628 20.2538 190.598C21.1682 190.537 21.9912 190.476 22.7227 190.415C24.0639 190.263 24.9935 189.897 25.5117 189.318C26.0603 188.708 26.3346 187.931 26.3346 186.986V185.934C26.3346 184.959 26.0756 184.136 25.5574 183.466C25.0392 182.795 24.1096 182.46 22.7684 182.46H10.2867V190.415C11.6278 190.507 12.8623 190.568 13.9901 190.598C15.1178 190.628 16.1694 190.644 17.1448 190.644ZM46.3203 205C44.7963 205 43.6228 204.802 42.7998 204.406C41.9768 204.009 41.3825 203.506 41.0167 202.897C40.6814 202.287 40.468 201.647 40.3766 200.977C40.3156 200.306 40.2852 199.696 40.2852 199.148V190.369C40.2852 189.912 40.3156 189.364 40.3766 188.723C40.468 188.053 40.6814 187.398 41.0167 186.757C41.3825 186.117 41.9768 185.584 42.7998 185.157C43.6532 184.731 44.8267 184.517 46.3203 184.517H56.1502C58.1619 184.517 59.7317 184.715 60.8594 185.112C62.0177 185.477 62.8254 186.087 63.2826 186.94C63.7703 187.794 64.0142 188.937 64.0142 190.369V197.136H56.0131C53.2698 197.136 51.0295 197.075 49.2921 196.953C47.5852 196.831 46.4422 196.755 45.8631 196.725V199.239C45.8326 200.458 46.5641 201.068 48.0577 201.068H50.3894C52.0354 201.068 53.6356 201.053 55.1901 201.022C56.7751 200.961 58.2229 200.9 59.5335 200.839C60.8442 200.748 61.8958 200.672 62.6883 200.611L64.5171 203.583C64.5171 204.528 61.5148 205 55.5101 205H46.3203ZM45.8631 193.204H58.4363V190.278C58.4363 189.668 58.3601 189.242 58.2077 188.998C58.0857 188.754 57.6895 188.602 57.0189 188.541C56.3483 188.48 55.2053 188.449 53.5899 188.449H48.0577C46.5946 188.449 45.8631 189.059 45.8631 190.278V193.204ZM74.1695 205L66.8085 184.517H73.2094L76.9127 196.13L78.1015 200.199H78.5587L79.2445 196.587L82.3992 184.517H89.7145L93.0521 196.587L93.6922 200.199H94.1494L95.3839 196.039L98.8587 184.517H105.26L104.528 187.306L97.9442 205H90.6289L86.8341 192.427L86.3769 190.278H85.9197L85.3711 192.427L81.4848 205H74.1695ZM113.48 205C111.163 205 109.487 204.467 108.451 203.4C107.414 202.302 106.896 200.809 106.896 198.919C106.896 196.938 107.43 195.414 108.496 194.347C109.594 193.28 111.255 192.747 113.48 192.747H115.812C118.098 192.747 120.155 192.808 121.984 192.93C123.813 193.052 125.322 193.174 126.51 193.296V190.278C126.51 190.004 126.48 189.729 126.419 189.455C126.358 189.15 126.175 188.906 125.87 188.723C125.565 188.541 125.047 188.449 124.316 188.449H122.03C118.707 188.449 115.934 188.51 113.709 188.632C111.484 188.723 109.975 188.815 109.182 188.906L108.679 185.432C108.679 185.005 109.838 184.746 112.154 184.654C114.471 184.563 118.342 184.517 123.767 184.517H126.053C127.577 184.517 128.751 184.731 129.574 185.157C130.397 185.584 130.976 186.117 131.311 186.757C131.677 187.398 131.89 188.053 131.951 188.723C132.043 189.364 132.088 189.912 132.088 190.369V205H128.339L126.556 204.086C125.276 204.299 123.737 204.512 121.938 204.726C120.14 204.909 118.083 205 115.766 205H113.48ZM114.669 201.068H125.139C125.809 201.068 126.206 201.007 126.327 200.885C126.449 200.763 126.51 200.382 126.51 199.742V196.222H114.669C113.846 196.222 113.267 196.42 112.931 196.816C112.627 197.212 112.474 197.837 112.474 198.691C112.474 199.544 112.657 200.154 113.023 200.519C113.389 200.885 113.937 201.068 114.669 201.068ZM137.363 205V184.517H141.112L142.849 185.432C143.642 185.005 144.495 184.67 145.41 184.426C146.324 184.182 147.482 184.06 148.885 184.06C151.11 184.06 152.908 184.304 154.28 184.791C155.682 185.279 156.611 185.645 157.069 185.889L155.468 189.866C155.103 189.684 154.493 189.455 153.639 189.181C152.817 188.876 151.841 188.602 150.713 188.358C149.586 188.114 148.351 187.992 147.01 187.992H146.507C145.044 187.992 144.084 188.281 143.627 188.861C143.2 189.44 142.971 190.4 142.941 191.741V205H137.363ZM165.846 205C164.322 205 163.148 204.802 162.325 204.406C161.502 204.009 160.908 203.506 160.542 202.897C160.207 202.287 159.994 201.647 159.902 200.977C159.841 200.306 159.811 199.696 159.811 199.148V190.369C159.811 189.912 159.841 189.364 159.902 188.723C159.994 188.053 160.207 187.398 160.542 186.757C160.908 186.117 161.502 185.584 162.325 185.157C163.179 184.731 164.352 184.517 165.846 184.517H168.178C170.982 184.517 173.237 184.578 174.944 184.7C176.682 184.791 178.008 184.898 178.922 185.02V176.013H184.5V205H180.751L178.968 204.086C177.687 204.299 176.148 204.512 174.35 204.726C172.552 204.909 170.479 205 168.132 205H165.846ZM167.583 201.068H177.505C178.145 201.068 178.541 200.992 178.693 200.839C178.846 200.687 178.922 200.306 178.922 199.696V188.769C177.886 188.708 176.575 188.647 174.99 188.586C173.405 188.495 171.713 188.449 169.915 188.449H167.583C166.12 188.449 165.389 189.059 165.389 190.278V199.239C165.389 200.458 166.12 201.068 167.583 201.068ZM195.617 205C193.575 205 192.127 204.893 191.274 204.68C190.42 204.467 189.993 204.253 189.993 204.04L191.365 200.611C192.249 200.702 193.864 200.809 196.211 200.931C198.589 201.022 201.515 201.068 204.99 201.068H207.276C208.038 201.068 208.51 200.87 208.693 200.474C208.907 200.047 209.013 199.483 209.013 198.782C209.013 198.081 208.891 197.517 208.647 197.09C208.434 196.664 207.977 196.45 207.276 196.45H196.029C193.895 196.45 192.356 196.054 191.411 195.262C190.466 194.439 189.993 193.219 189.993 191.604V189.775C189.993 189.348 190.039 188.845 190.131 188.266C190.222 187.687 190.451 187.108 190.816 186.529C191.182 185.95 191.777 185.477 192.6 185.112C193.423 184.715 194.566 184.517 196.029 184.517H208.647C210.476 184.517 211.772 184.624 212.534 184.837C213.296 185.051 213.677 185.264 213.677 185.477L213.22 188.906C212.336 188.815 210.705 188.723 208.327 188.632C205.95 188.51 203.039 188.449 199.595 188.449H197.309C196.547 188.449 196.059 188.662 195.846 189.089C195.663 189.485 195.571 189.958 195.571 190.507C195.571 191.086 195.663 191.573 195.846 191.97C196.059 192.335 196.547 192.518 197.309 192.518H208.556C210.629 192.518 212.153 192.945 213.128 193.798C214.103 194.652 214.591 195.734 214.591 197.045V199.742C214.591 200.291 214.545 200.87 214.454 201.48C214.393 202.089 214.18 202.668 213.814 203.217C213.448 203.735 212.854 204.162 212.031 204.497C211.208 204.832 210.05 205 208.556 205H195.617Z" fill="#D750AA"/>
<path fill-rule="evenodd" clip-rule="evenodd" d="M113.212 9.55797V25.4195C109.576 22.9274 105.179 21.4321 100.458 21.4321C88.0564 21.4615 78 31.5179 78 43.9198C78 53.8002 84.3915 62.1268 93.2458 65.1173V54.328C89.9035 52.0411 87.7046 48.259 87.7046 43.8904C87.7046 36.8539 93.4218 31.1367 100.458 31.1367C107.495 31.1367 113.212 36.8539 113.212 43.8904C113.212 44.3889 113.183 44.8873 113.124 45.3857V59.1949C113.124 59.1949 113.124 59.3415 113.124 59.3708V59.6054C113.124 60.485 113.271 61.3645 113.505 62.1561C119.193 58.0808 122.917 51.4254 122.917 43.8904V0L113.212 9.55797Z" fill="white"/>
<path fill-rule="evenodd" clip-rule="evenodd" d="M127.666 40.1089V50.8689C131.038 53.1558 133.295 56.938 133.295 61.3065C133.295 68.343 127.578 74.0602 120.542 74.0602C113.505 74.0602 107.935 68.4896 107.788 61.5703V61.3065C107.788 61.3065 107.788 61.1306 107.788 61.0426V42.8355C101.924 46.8816 98.0834 53.6542 98.0834 61.3065V104.933L107.788 95.3751V79.8067C111.424 82.2988 115.821 83.7941 120.542 83.7941C132.944 83.7941 143 73.7377 143 61.3358C143 51.4553 136.579 43.1287 127.696 40.1382L127.666 40.1089Z" fill="white"/>
</svg>
