<?xml version="1.0" encoding="UTF-8"?>
<svg id="Layer_1" data-name="Layer 1" xmlns="http://www.w3.org/2000/svg" viewBox="0 0 137.81 35.79">
  <defs>
    <style>
      .cls-1 {
        fill-rule: evenodd;
      }

      .cls-1, .cls-2 {
        fill: #fff;
        stroke-width: 0px;
      }
    </style>
  </defs>
  <g>
    <path class="cls-1" d="M12.01,3.26v5.41c-1.24-.85-2.74-1.36-4.35-1.36C3.43,7.32,0,10.75,0,14.98c0,3.37,2.18,6.21,5.2,7.23v-3.68c-1.14-.78-1.89-2.07-1.89-3.56,0-2.4,1.95-4.35,4.35-4.35s4.35,1.95,4.35,4.35c0,.17-.01.34-.03.51v4.71s0,.05,0,.06v.08c0,.3.05.6.13.87,1.94-1.39,3.21-3.66,3.21-6.23h0V0l-3.31,3.26Z"/>
    <path class="cls-1" d="M16.94,13.68v3.67c1.15.78,1.92,2.07,1.92,3.56,0,2.4-1.95,4.35-4.35,4.35s-4.3-1.9-4.35-4.26h0v-.09s0-.06,0-.09v-6.21c-2,1.38-3.31,3.69-3.31,6.3h0v14.88l3.31-3.26v-5.31c1.24.85,2.74,1.36,4.35,1.36,4.23,0,7.66-3.43,7.66-7.66,0-3.37-2.19-6.21-5.22-7.23Z"/>
  </g>
  <g>
    <path class="cls-2" d="M56.01,13.2c-.89-1.22-2.11-1.98-3.5-2.5-1.78-.66-3.63-.93-5.51-.95-3.83-.04-7.67-.02-11.5-.02-.05,0-.1.01-.16.02v15.95h.28c3.35,0,6.69,0,10.04,0,1.25,0,2.5-.05,3.74-.23,1.45-.21,2.85-.58,4.15-1.28,1.79-.97,2.99-2.4,3.46-4.39.28-1.2.27-2.42.13-3.64-.12-1.08-.49-2.07-1.14-2.95ZM51.24,20.01c-.53.69-1.27,1.09-2.08,1.35-1,.33-2.04.46-3.09.47-1.84.01-3.69,0-5.53.01-.05,0-.1,0-.18-.01v-8.31c.07,0,.14-.01.2-.01,1.82,0,3.64-.01,5.46,0,1.28.01,2.54.16,3.73.69,1.05.46,1.84,1.19,2.09,2.35.27,1.22.2,2.41-.6,3.46Z"/>
    <path class="cls-2" d="M93.78,10.55c-1.26-.58-2.61-.8-3.98-.81-4.2-.03-8.41-.02-12.61-.02-.06,0-.12.01-.19.02v15.93h5v-5.3c.44,0,.84,0,1.24,0,2.33-.01,4.66,0,6.99-.05,1.12-.02,2.22-.25,3.26-.68,1.27-.53,2.23-1.38,2.69-2.72.27-.78.31-1.58.26-2.4-.1-1.84-.97-3.18-2.65-3.96ZM91.21,15.2c-.07.92-.58,1.38-1.64,1.53-.22.03-.45.05-.68.05-2.24,0-4.47,0-6.71,0-.05,0-.1,0-.17,0v-3.42c.09,0,.17,0,.25,0,2.16,0,4.32,0,6.48,0,.48,0,.97.03,1.43.2.78.29,1.09.89,1.03,1.65Z"/>
    <path class="cls-2" d="M75.33,18.74c-.23-1.54-.99-2.78-2.32-3.63-1.15-.73-2.43-1.05-3.76-1.19-1.55-.16-3.11-.14-4.66-.04-1.18.08-2.33.31-3.41.81-1.44.66-2.45,1.7-2.89,3.25-.25.86-.25,1.74-.2,2.61.1,1.61.77,2.94,2.09,3.91,1.14.83,2.45,1.24,3.82,1.39,2.18.25,4.36.24,6.54-.09,1.03-.16,2.03-.45,2.93-1,.95-.58,1.63-1.37,1.85-2.49.04-.22.05-.44.08-.68h-.29c-1.35,0-2.7,0-4.05,0-.24,0-.43,0-.53.28-.05.15-.18.29-.32.37-.36.21-.72.44-1.11.55-1.08.33-2.2.33-3.32.21-.72-.08-1.4-.25-2.01-.67-.53-.37-.85-.87-.98-1.52h12.7c-.05-.73-.05-1.42-.15-2.1ZM62.87,18.45c.19-.66.59-1.13,1.19-1.44.6-.31,1.24-.43,1.91-.47,1.07-.07,2.14-.05,3.16.34.64.25,1.14.66,1.39,1.32.02.05.03.1.05.15,0,.03,0,.06.02.1h-7.71Z"/>
    <path class="cls-2" d="M119.97,22.55c-.54,0-.69-.15-.69-.69,0-1.5,0-3,0-4.5,0-1.28-.59-2.19-1.76-2.72-.99-.45-2.04-.66-3.11-.71-1.42-.07-2.85-.09-4.28-.09-.97,0-1.94.11-2.88.35-.9.23-1.75.55-2.41,1.25-.61.65-.81,1.44-.78,2.31.05.01.07.02.09.02,1.4,0,2.81,0,4.21,0,.06,0,.13-.09.17-.15.12-.18.2-.4.34-.54.3-.3.71-.4,1.12-.46,1.08-.19,2.18-.15,3.27-.04.34.04.68.14,1,.27.34.14.44.4.38.74-.05.25-.24.39-.6.43-1.44.14-2.88.27-4.33.41-1.07.1-2.15.17-3.19.45-.7.19-1.37.45-1.91.95-.6.56-.81,1.29-.83,2.09-.02.9.19,1.71.78,2.4.72.83,1.68,1.23,2.73,1.42,1.41.26,2.83.24,4.23,0,1.21-.21,2.32-.64,3.2-1.55.01-.01.04-.02.06-.02.01.02.03.03.03.04.2,1.04.99,1.52,1.97,1.5,1.16-.02,2.32,0,3.48,0h.24v-3.14c-.19,0-.36,0-.54,0ZM113.71,22.3c-.79.63-1.72.9-2.71.98-.62.05-1.24.04-1.84-.19-.53-.21-.83-.63-.81-1.16.01-.33.18-.58.48-.68.45-.15.91-.28,1.38-.36,1.44-.24,2.89-.45,4.33-.67.03,0,.06,0,.11-.01.09.9-.28,1.56-.94,2.09Z"/>
    <path class="cls-2" d="M137.8,18.47c0-.47-.07-.96-.21-1.41-.45-1.47-1.51-2.35-2.94-2.82-1.14-.38-2.31-.42-3.49-.32-1.79.15-3.37.77-4.69,2.01-.05.04-.1.08-.19.15v-1.92h-4.75v11.52h4.79c0-.1,0-.19,0-.28,0-1.68,0-3.36,0-5.04,0-1.5.7-2.53,2.04-3,.68-.24,1.37-.28,2.09-.21,1.52.14,2.47,1.11,2.49,2.63.03,1.87.01,3.74.01,5.61,0,.1,0,.19,0,.3h4.84c0-.08.01-.14.01-.21,0-2.33.01-4.66,0-7Z"/>
    <path class="cls-2" d="M97.77,25.68h4.77v-15.95h-4.77v15.95Z"/>
  </g>
</svg>