<svg width="69" height="69" viewBox="0 0 69 69" fill="none" xmlns="http://www.w3.org/2000/svg">
<g clip-path="url(#clip0_9590_2064)">
<path d="M67.2083 25.9327C66.635 16.4011 58.3853 8.77234 48.5804 4.88217C52.842 10.0866 55.6386 17.9421 55.0765 27.343L58.594 27.5533L43.029 42.8912C42.7206 42.7973 42.4394 42.6675 42.1014 42.6473L36.0929 42.288L37.0509 26.2652L51.0708 27.1035C51.933 12.683 43.883 2.55362 36.485 2.1113C29.087 1.66898 19.8874 10.767 19.0252 25.1875L33.0452 26.0257L32.0872 42.0485L26.0786 41.6893C25.7407 41.6691 25.446 41.7645 25.1286 41.8209L11.502 24.7377L15.0195 24.948C15.5816 15.5471 19.2943 8.08083 24.1456 3.42124C13.9463 6.12795 4.84637 12.7194 3.14219 22.1022C2.93639 23.2331 3.86617 24.2811 5.01781 24.35L6.10686 24.4151L22.0818 44.4528C21.9747 44.773 21.8426 45.0917 21.8209 45.4547L20.8629 61.4775C20.7305 63.6932 22.4135 65.5902 24.6291 65.7227L40.6519 66.6807C42.8676 66.8132 44.7646 65.1301 44.8971 62.9145L45.8551 46.8917C45.8768 46.5287 45.7829 46.209 45.7154 45.8658L63.9766 27.8751L65.0657 27.9402C66.2298 28.0098 67.2771 27.0925 67.2083 25.9327Z" fill="white"/>
<path fill-rule="evenodd" clip-rule="evenodd" d="M34.1344 48.4589L33.988 50.9085C33.4495 50.4901 32.7841 50.2186 32.0552 50.175C30.1396 50.065 28.4936 51.5252 28.3791 53.4405C28.2879 54.9664 29.1981 56.3114 30.5379 56.855L30.6375 55.1887C30.1425 54.8047 29.8378 54.2003 29.8781 53.5256C29.9431 52.4389 30.8788 51.6088 31.9655 51.6737C33.0522 51.7387 33.8824 52.6744 33.8174 53.7611C33.8128 53.8381 33.8037 53.9148 33.79 53.9912L33.6625 56.1239C33.6625 56.1239 33.6612 56.1465 33.6609 56.1511L33.6587 56.1873C33.6506 56.3231 33.6651 56.4603 33.694 56.5847C34.6101 56.0079 35.2466 55.0144 35.3162 53.8507L35.7214 47.0725L34.1344 48.4589Z" fill="black"/>
<path fill-rule="evenodd" clip-rule="evenodd" d="M36.0847 53.3108L35.9853 54.9725C36.4849 55.3568 36.7986 55.9618 36.7583 56.6364C36.6933 57.7231 35.7576 58.5533 34.6709 58.4883C33.5842 58.4233 32.7753 57.5116 32.8166 56.4416L32.819 56.4009C32.819 56.4009 32.8206 56.3737 32.8214 56.3601L32.9896 53.5483C32.0466 54.119 31.3909 55.1295 31.3203 56.3113L30.9174 63.0488L32.5044 61.6623L32.6482 59.258C33.1866 59.6764 33.852 59.948 34.581 59.9916C36.4963 60.1061 38.1422 58.6459 38.2568 56.7305C38.348 55.2046 37.4333 53.8594 36.0889 53.3156L36.0847 53.3108Z" fill="black"/>
</g>
<defs>
<clipPath id="clip0_9590_2064">
<rect width="64.2056" height="64.2056" fill="white" transform="translate(4.43958 0.195312) rotate(3.42158)"/>
</clipPath>
</defs>
</svg>
